# 3ds Max Wavefront OBJ Exporter v0.97b - (c)2007 guruware
# File Created: 14.05.2014 20:08:05

#
# object Box001
#

v  -25.000000000000 -25.000000000000 0.000000000000
v  -25.000000000000 25.000000000000 0.000000000000
v  25.000000000000 25.000000000000 0.000000000000
v  25.000000000000 -25.000000000000 0.000000000000
v  -25.000000000000 -25.000000000000 50.000000000000
v  25.000000000000 -25.000000000000 50.000000000000
v  25.000000000000 25.000000000000 50.000000000000
v  -25.000000000000 25.000000000000 50.000000000000
# 8 vertices

vn 0.000000000000 0.000000000000 -1.000000000000
vn 0.000000000000 0.000000000000 1.000000000000
vn 0.000000000000 -1.000000000000 0.000000000000
vn 1.000000000000 0.000000000000 0.000000000000
vn 0.000000000000 1.000000000000 0.000000000000
vn -1.000000000000 0.000000000000 0.000000000000
# 6 vertex normals

vt 0.622727632523 0.636787533760 0.000000000000
vt 0.362244129181 0.636787533760 0.000000000000
vt 0.362244129181 0.376304030418 0.000000000000
vt 0.622727632523 0.376304030418 0.000000000000
vt 0.921502351761 0.376304030418 0.000000000000
vt 0.921502351761 0.636787533760 0.000000000000
vt 0.661018729210 0.636787533760 0.000000000000
vt 0.661018729210 0.376304030418 0.000000000000
vt 0.063469380140 0.325249195099 0.000000000000
vt 0.064124912024 0.064437776804 0.000000000000
vt 0.324280887842 0.064437776804 0.000000000000
vt 0.323625326157 0.325249195099 0.000000000000
vt 0.375335693359 0.064437776804 0.000000000000
vt 0.635819315910 0.064437776804 0.000000000000
vt 0.635819315910 0.324921309948 0.000000000000
vt 0.375335693359 0.324921309948 0.000000000000
vt 0.063469380140 0.675078749657 0.000000000000
vt 0.323952913284 0.675078749657 0.000000000000
vt 0.323952913284 0.935562252998 0.000000000000
vt 0.063469380140 0.935562252998 0.000000000000
vt 0.323952913284 0.636787533760 0.000000000000
vt 0.063469380140 0.636787533760 0.000000000000
vt 0.063469380140 0.376304000616 0.000000000000
vt 0.323953002691 0.376304000616 0.000000000000
# 24 texture coords

g Box001
f 1/1/1 2/2/1 3/3/1 
f 3/3/1 4/4/1 1/1/1 
f 5/5/2 6/6/2 7/7/2 
f 7/7/2 8/8/2 5/5/2 
f 1/9/3 4/10/3 6/11/3 
f 6/11/3 5/12/3 1/9/3 
f 4/13/4 3/14/4 7/15/4 
f 7/15/4 6/16/4 4/13/4 
f 3/17/5 2/18/5 8/19/5 
f 8/19/5 7/20/5 3/17/5
f 2/21/6 1/22/6 5/23/6
f 5/23/6 8/24/6 2/21/6 
# 12 faces

